PathFileType	3	(X/Y/Z)	F:\ViconData\AntennenMessung\Messung1\Session1\ID10.trc
DataRate	CameraRate	NumFrames	NumMarkers	Units	OrigDataRate	OrigDataStartFrame	OrigNumFrames
120.0	120.0	6	70	mm	120.0	313	1251	
Frame#	Time	Ashort			Along			Atop			A4			Bshort			Blong			Btop			B4			Cshort			Clong			Ctop			C4			Dshort			Dlong			Dtop			D4			Eshort			Elong			Etop			E4			Fshort			Flong			Ftop			F4			Gshort			Glong			Gtop			G4			Hshort			Hlong			Htop			H4			I1			I2			I3			I4			I5			WandAshort			WandAlong			WandAtop			WandA4			WandA15			WandBshort			WandB4			WandB5			WandBtop			WandBlong			WandCshort			WandClong			WandCtop			WandC4			WandC5			Acenter			Aantenna			Bcenter			Bantenna			Ccenter			Cantenna			Dcenter			Dantenna			Ecenter			Eantenna			Fcenter			Fantenna			Gcenter			Gantenna			Hcenter			Hantenna			Icenter			Iantenna			
		X1	Y1	Z1	X2	Y2	Z2	X3	Y3	Z3	X4	Y4	Z4	X5	Y5	Z5	X6	Y6	Z6	X7	Y7	Z7	X8	Y8	Z8	X9	Y9	Z9	X10	Y10	Z10	X11	Y11	Z11	X12	Y12	Z12	X13	Y13	Z13	X14	Y14	Z14	X15	Y15	Z15	X16	Y16	Z16	X17	Y17	Z17	X18	Y18	Z18	X19	Y19	Z19	X20	Y20	Z20	X21	Y21	Z21	X22	Y22	Z22	X23	Y23	Z23	X24	Y24	Z24	X25	Y25	Z25	X26	Y26	Z26	X27	Y27	Z27	X28	Y28	Z28	X29	Y29	Z29	X30	Y30	Z30	X31	Y31	Z31	X32	Y32	Z32	X33	Y33	Z33	X34	Y34	Z34	X35	Y35	Z35	X36	Y36	Z36	X37	Y37	Z37	X38	Y38	Z38	X39	Y39	Z39	X40	Y40	Z40	X41	Y41	Z41	X42	Y42	Z42	X43	Y43	Z43	X44	Y44	Z44	X45	Y45	Z45	X46	Y46	Z46	X47	Y47	Z47	X48	Y48	Z48	X49	Y49	Z49	X50	Y50	Z50	X51	Y51	Z51	X52	Y52	Z52	X53	Y53	Z53	X54	Y54	Z54	X55	Y55	Z55	X56	Y56	Z56	X57	Y57	Z57	X58	Y58	Z58	X59	Y59	Z59	X60	Y60	Z60	X61	Y61	Z61	X62	Y62	Z62	X63	Y63	Z63	X64	Y64	Z64	X65	Y65	Z65	X66	Y66	Z66	X67	Y67	Z67	X68	Y68	Z68	X69	Y69	Z69	X70	Y70	Z70	
313	2.6	-1038.2655	214.54105	-1644.2107	-1109.3142	203.91658	-1599.3461	-1063.8201	172.66266	-1625.3944	-1054.2059	262.2233	-1634.9424	-1352.8682	235.57487	1003.7882	-1281.4248	227.16463	1052.4313	-1322.8605	194.07117	1020.8483	-1284.5696	287.95178	1052.7311	813.98804	187.72002	1209.5792	892.64758	179.25009	1178.8013	844.50208	145.45467	1198.2667	860.63312	292.64383	1167.4241	1115.6949	209.54099	-1401.5818	1056.1938	194.15085	-1460.3054	1095.1201	162.49803	-1423.941	1069.8485	238.67763	-1425.8192	-1204.5242	1685.972	-1563.2302	-1129.1492	1688.2784	-1606.063	-1173.1427	1724.452	-1581.9713	-1134.041	1581.0237	-1603.842	-1239.7598	1699.3586	1119.4838	-1309.3324	1698.8127	1071.9017	-1270.639	1736.6438	1096.9669	-1245.6	1592.8462	1110.6844	988.8877	1664.293	1162.3225	957.39526	1700.4502	1183.7809	922.72272	1662.0509	1214.9719	939.78986	1659.4098	1159.9563	999.06506	1668.5299	-1579.4235	1058.8353	1670.1522	-1518.6437	1024.9746	1708.0206	-1551.1179	1059.2117	1672.1287	-1585.4514	31.495068	196.424	-944.38037	115.52801	203.97763	-932.32288	72.573769	161.41673	-940.04321	72.663216	200.63103	-971.18707	61.74905	198.25574	-892.33344																																														-1069.0153	209.94278	-1624.7932	-1074.3973	248.56461	-1624.1704	-1321.3884	231.86909	1025.2214	-1319.8809	270.5817	1029.7004	847.89514	184.06894	1196.312	851.30463	222.86993	1194.3479	1088.8397	202.59482	-1428.0859	1082.8362	240.92567	-1432.0485	-1171.8856	1686.9707	-1581.7775	-1170.5785	1647.993	-1581.5759	-1271.0897	1699.1128	1098.0564	-1271.5579	1660.1321	1099.1882	953.14062	1705.335	1186.6798	972.91443	1733.4727	1168.2881	1026.4706	1669.2736	-1551.5548	1027.9752	1630.3052	-1551.9944	68.974838	199.793	-939.0025	65.334732	238.60847	-937.94995
314	2.6083333	-1038.2969	214.72136	-1644.2203	-1109.328	203.87666	-1599.3218	-1063.899	172.65294	-1625.3434	-1054.2173	262.20807	-1634.9326	-1352.9918	235.35016	1003.8082	-1281.3569	227.19641	1052.408	-1322.8605	194.13646	1020.8196	-1284.5969	287.87796	1052.7777	814.05347	187.68977	1209.6632	892.57257	179.25439	1178.7826	844.3205	145.71542	1198.2401	860.60803	292.66754	1167.4674	1115.7291	209.81389	-1401.7209	1056.1797	194.15253	-1460.2875	1095.0781	162.33418	-1423.907	1069.8527	238.67937	-1425.8239	-1204.5176	1685.9619	-1563.229	-1129.1034	1688.42	-1606.4763	-1173.1365	1724.442	-1581.9712	-1134.0469	1581.0317	-1603.8395	-1239.7814	1699.4095	1119.5082	-1309.3348	1698.8126	1071.8929	-1270.5188	1736.4836	1096.899	-1245.6187	1592.8755	1110.6844	988.89661	1664.2876	1162.3108	957.12811	1700.636	1183.7599	922.61292	1662.101	1214.9633	939.79297	1659.3829	1159.9834	999.05176	1668.5237	-1579.4316	1058.8306	1670.1471	-1518.627	1024.9667	1708.0181	-1551.1158	1059.2317	1672.1395	-1585.4542	31.478319	196.41568	-944.36444	115.51863	203.98866	-932.3291	72.722687	161.76149	-940.28644	72.677246	200.63263	-971.17743	61.700146	198.4978	-892.16547																																														-1069.1903	210.00467	-1624.6925	-1074.6597	248.6134	-1624.0198	-1321.521	231.76804	1025.1589	-1320.1429	270.48712	1029.6238	847.72546	184.07234	1196.4203	851.1701	222.87628	1194.5792	1088.7416	202.71626	-1428.2628	1082.7301	241.02792	-1432.3955	-1171.8967	1687.0251	-1581.9358	-1170.6052	1648.0465	-1581.899	-1271.0308	1699.1412	1098.1152	-1271.5653	1660.1656	1099.3848	952.9718	1705.3914	1186.5662	972.69922	1733.5221	1168.1135	1026.4617	1669.2679	-1551.5511	1027.9652	1630.2993	-1551.9889	69.106697	199.80641	-938.97571	65.418724	238.60861	-937.63879
315	2.6166667	-1038.2782	214.59859	-1644.249	-1109.3115	203.89438	-1599.342	-1063.786	173.10692	-1625.5867	-1054.2085	262.22839	-1634.9713	-1353.0138	235.32996	1003.8148	-1281.3333	227.15889	1052.3817	-1322.8955	194.08444	1020.8549	-1284.5527	287.97305	1052.6823	814.03931	187.72797	1209.6573	892.70972	179.40053	1178.703	844.3476	145.67841	1198.2804	860.69196	292.66489	1167.434	1115.6907	209.55058	-1401.5687	1056.1975	194.09093	-1460.2296	1095.0707	162.28651	-1423.8853	1069.8779	238.69713	-1425.8616	-1204.5076	1685.9705	-1563.2457	-1129.1494	1688.2941	-1606.0913	-1173.1444	1724.4479	-1581.9623	-1134.0272	1581.0288	-1603.8518	-1239.7875	1699.4098	1119.4976	-1309.3536	1698.8427	1071.9021	-1270.5192	1736.4553	1096.9028	-1244.5503	1594.4949	1106.793	988.90588	1664.2888	1162.3164	957.08856	1700.6622	1183.7836	922.74768	1662.0886	1215.0573	939.74738	1659.3724	1159.9656	999.05267	1668.5775	-1579.4813	1058.8303	1670.1454	-1518.6329	1024.9775	1708.0271	-1551.1156	1059.2244	1672.1395	-1585.4489	31.450026	196.62257	-944.59076	115.50519	203.94257	-932.30035	72.723801	161.77211	-940.25305	72.671677	200.6526	-971.18811	61.718277	198.65956	-892.01599																																														-1068.9019	209.9838	-1624.8888	-1074.2601	248.60704	-1624.158	-1321.5168	231.73953	1025.1553	-1320.0992	270.46204	1029.5778	847.68848	184.16612	1196.4174	851.05731	222.97491	1194.5387	1088.7726	202.55574	-1428.1102	1082.7783	240.88194	-1432.1316	-1171.8911	1686.9761	-1581.79	-1170.5875	1647.9982	-1581.6111	-1271.043	1699.155	1098.1132	-1271.5905	1660.1792	1099.3779	952.98163	1705.3573	1186.5544	972.63727	1733.4871	1168.0242	1026.4645	1669.2964	-1551.5784	1027.9606	1630.3279	-1552.0442	69.228859	199.91257	-939.06677	65.671768	238.73123	-937.85938
316	2.625	-1038.282	214.70581	-1644.2037	-1109.3141	203.92284	-1599.3462	-1063.9287	172.67831	-1625.3311	-1054.2308	262.23026	-1634.9438	-1353.0823	235.08195	1003.8439	-1281.4182	227.18916	1052.4537	-1322.8876	194.07259	1020.8693	-1284.7112	287.93286	1052.8068	814.00525	187.63916	1209.606	892.22565	178.72292	1179.2272	844.27319	145.71559	1198.2762	860.59497	292.71188	1167.3458	1115.7321	209.80971	-1401.7164	1056.2622	194.20065	-1460.3553	1095.069	162.4435	-1423.9772	1069.8232	238.68077	-1425.8389	-1204.5168	1685.9561	-1563.2324	-1129.1738	1688.4192	-1606.6317	-1173.1433	1724.4479	-1581.9729	-1134.0419	1581.0157	-1603.8256	-1239.7424	1699.3391	1119.4778	-1309.3667	1698.8641	1071.9158	-1270.4919	1736.427	1096.8927	-1245.6587	1592.9899	1110.7311	988.84058	1664.2646	1162.323	957.06152	1700.618	1183.7365	922.62683	1662.1952	1215.0488	939.79254	1659.3765	1159.9408	999.05273	1668.5421	-1579.4375	1058.8243	1670.1484	-1518.6355	1024.9747	1708.0194	-1551.1169	1059.231	1672.1482	-1585.4518	31.383921	196.63049	-944.48047	115.59521	204.03845	-932.35193	72.622383	161.24286	-939.84772	72.659637	200.62602	-971.19946	61.707302	198.50816	-892.16187																																														-1069.189	210.01401	-1624.6857	-1074.629	248.62694	-1624.0182	-1321.6605	231.62129	1025.1572	-1320.3951	270.34906	1029.5798	847.89929	183.7756	1196.4423	851.59406	222.55521	1194.5736	1088.7643	202.73146	-1428.3074	1082.7684	241.0471	-1432.4258	-1171.9352	1687.0211	-1582.0001	-1170.6772	1648.0415	-1582.0284	-1271.054	1699.1254	1098.088	-1271.6411	1660.1499	1099.3369	952.86975	1705.413	1186.5608	972.54407	1733.5281	1168.0281	1026.462	1669.2787	-1551.5555	1027.9583	1630.3099	-1551.9969	69.102318	199.94852	-939.04803	65.570808	238.78003	-938.24585
317	2.6333333	-1038.2902	214.72165	-1644.2059	-1109.327	203.99802	-1599.3842	-1063.7218	173.12831	-1625.6088	-1054.2018	262.23068	-1634.9435	-1352.9393	235.32986	1003.7256	-1281.3553	227.21518	1052.376	-1322.772	194.20804	1020.809	-1284.7657	287.8421	1052.8527	814.05566	187.6257	1209.7241	892.58191	179.29071	1178.6815	844.47675	145.5174	1198.2072	860.66748	292.63995	1167.4823	1115.7452	209.80405	-1401.7262	1056.1559	194.11946	-1460.2495	1095.0231	162.28333	-1423.8792	1069.8359	238.66518	-1425.855	-1204.5166	1685.9568	-1563.2428	-1129.15	1688.3405	-1606.2738	-1173.1415	1724.4324	-1581.967	-1134.038	1581.0187	-1603.8358	-1239.744	1699.3428	1119.4789	-1309.36	1698.821	1071.8977	-1270.4951	1736.4343	1096.892	-1244.8395	1594.1395	1106.1567	988.8269	1664.2339	1162.3175	957.30597	1700.5364	1183.8091	922.79083	1662.0975	1215.0074	939.78589	1659.3889	1159.9724	999.0672	1668.532	-1579.4351	1058.8479	1670.1533	-1518.644	1024.979	1708.0231	-1551.1204	1059.2288	1672.1376	-1585.4547	31.551771	196.39926	-944.47571	115.51602	203.93855	-932.31458	72.632156	161.93837	-940.4411	72.653374	200.65599	-971.19611	61.704254	198.52028	-892.17511																																														-1068.8655	210.10603	-1624.9139	-1074.2377	248.72742	-1624.1882	-1321.4496	231.76022	1025.1268	-1320.0862	270.48126	1029.5791	847.83899	184.03984	1196.3689	851.2262	222.84833	1194.5172	1088.709	202.68782	-1428.2787	1082.7222	240.99908	-1432.4504	-1171.8994	1686.9884	-1581.8657	-1170.6064	1648.0099	-1581.7601	-1271.0353	1699.1083	1098.0917	-1271.5996	1660.1324	1099.3446	953.17969	1705.2883	1186.6223	972.94733	1733.3832	1168.1582	1026.4779	1669.2754	-1551.561	1027.9855	1630.3071	-1552.0042	69.033722	199.76482	-939.04688	65.342804	238.56343	-937.61688
318	2.6416667	-1038.2427	214.56993	-1644.2327	-1109.3258	203.92641	-1599.3644	-1063.8606	172.69882	-1625.3955	-1054.228	262.2326	-1634.9685	-1352.71	235.44482	1003.6801	-1281.3804	227.1738	1052.446	-1322.8649	194.17238	1020.7946	-1284.6254	287.94193	1052.7487	814.00708	187.64636	1209.6414	892.61041	179.28708	1178.6753	844.35016	145.79601	1198.1788	860.56744	292.62878	1167.4391	1115.7238	209.80107	-1401.7158	1056.2466	194.17702	-1460.3344	1095.0355	162.25211	-1423.8483	1069.842	238.68321	-1425.8444	-1204.5171	1685.9453	-1563.2291	-1129.139	1688.3451	-1606.2797	-1173.144	1724.4492	-1581.972	-1134.0363	1581.0297	-1603.8501	-1239.7493	1699.3558	1119.4797	-1309.1428	1698.453	1071.7604	-1270.6117	1736.6155	1096.9596	-1244.9456	1593.7802	1106.2354	988.87079	1664.2787	1162.3081	957.32727	1700.4904	1183.7592	922.80005	1662.0919	1214.9833	939.80652	1659.3889	1159.9407	999.05865	1668.5737	-1579.4652	1058.8379	1670.1523	-1518.6399	1024.9856	1708.0227	-1551.1198	1059.2368	1672.1416	-1585.4564	31.610977	196.36417	-944.52704	115.51974	203.957	-932.31415	72.61615	161.88573	-940.45062	72.6418	200.6221	-971.17987	61.770679	198.24561	-892.34583																																														-1069.0537	209.95648	-1624.7844	-1074.4366	248.57799	-1624.151	-1321.4229	231.81693	1025.0701	-1319.9395	270.53976	1029.468	847.70538	184.06262	1196.3657	851.10815	222.87035	1194.5269	1088.7715	202.72098	-1428.2789	1082.8405	241.03839	-1432.474	-1171.8894	1686.9839	-1581.8636	-1170.5841	1648.006	-1581.7509	-1270.8845	1698.9507	1098.0692	-1271.167	1659.9686	1099.2175	953.12628	1705.3129	1186.6161	972.85907	1733.4362	1168.158	1026.4702	1669.2975	-1551.5739	1027.9642	1630.3287	-1552.0309	68.991554	199.7467	-939.08624	65.277306	238.54424	-937.68817
